<?xml version="1.0" encoding="UTF-8"?>
<svg id="Layer_1" data-name="Layer 1" xmlns="http://www.w3.org/2000/svg" viewBox="0 0 1483.7 500">
  <defs>
    <style>
      .cls-1 {
        fill: #fff;
      }
    </style>
  </defs>
  <path class="cls-1" d="m307.67,426.51c-35.67,0-69.07-9.75-97.68-26.72-13.86-8.21-26.6-18.13-37.93-29.46-.29-.29-.58-.58-.87-.88-11.91-12.52-21.92-26.88-29.53-42.59-7.56-15.58-12.77-32.5-15.17-50.32-1.02-7.44-1.55-15.03-1.55-22.75,0-71.83,45.14-133.12,108.6-157.04,14.24-4.23,29.34-6.51,44.95-6.51,48.66,0,92.17,22.01,121.13,56.62,6.07,7.26,5.78,17.91-.5,24.99l-19.28,21.8-7.46,8.44c-6.61,7.48-18.57,6.71-24.04-1.64-14.86-22.69-40.79-37.35-69.89-36.51-13.33.39-28.21,5.03-39.14,11.08-25.71,16.4-42.46,44.4-42.46,77.67,0,17.33,4.64,33.59,12.74,47.57,4.52,9.31,10.45,17.82,17.48,25.26.24.25.49.51.75.76,6.4,6.64,13.73,12.42,21.78,17.11.27.17.54.34.83.49,17.28,10.31,37.46,16.22,59.03,16.22,6.69,0,13.27-.58,19.64-1.66,7.36-1.26,14.46-3.21,21.25-5.81,28.39-9.48,53.85-25.33,74.71-45.85,14.02-13.73,25.94-29.56,35.28-46.99,14.78-27.47,21.35-55.15,21.35-88.52,0-6.61-1.48-13.14-4.25-19.14-35.17-75.97-110.02-128.43-196.68-128.43-120.44,0-218.08,101.32-218.08,226.3s97.64,226.3,218.08,226.3,218.08-101.32,218.08-226.3v-14.58c0,105.92-85.27,191.09-191.2,191.09Zm122.75-220.1c14.08,11.69,8.61,34.54-7.42,49.02l-76.92,67.55c-20.29,18.33-49.73,15.94-66.79-5.42l-36.58-46.97c-4.25-5.32-5.82-10.98-4.62-17.22,1.74-9.03,10.34-15.28,19.41-13.78,4.03.67,8.69,2.51,13.37,6.64l19.03,16.77s24.28,26.49,42.22,8.57c16.42-16.41,54.74-46.81,74.13-63.06,12.78-10.72,24.18-2.1,24.18-2.1Z"/>
  <path class="cls-1" d="m1274.15,200.23c-11.29,13.3-21.63,25.56-32.07,37.73-10.49,12.25-21.08,24.41-32.15,37.22,21.24,27.35,42.47,54.68,64.88,83.53-17.45,0-33.17.16-48.87-.2-1.89-.04-4.09-2.59-5.53-4.45-17.44-22.64-34.76-45.36-52.12-68.06-.59-.77-1.3-1.45-3.26-3.63v75.76h-42.03v-223.09h41.22v132.31l1.72.94c4.49-5.1,9.06-10.12,13.44-15.31,13.35-15.78,26.55-31.69,40.04-47.35,2.02-2.35,5.23-5.09,7.97-5.18,15.14-.5,30.31-.24,46.74-.24Z"/>
  <path class="cls-1" d="m740.91,280.48c0-49.14,35.57-84.62,84.7-84.46,48.8.15,86.04,35.76,86.38,82.59.36,50.19-36.13,86.4-86.98,86.31-48.16-.08-84.09-36.16-84.09-84.44Zm86,44.51c24.02.16,41.1-17.99,41.43-44.01.32-25.71-18.26-46.29-41.78-46.26-23.84.02-41.35,18.61-41.54,44.09-.2,27.55,16.54,46.01,41.89,46.18Z"/>
  <path class="cls-1" d="m1047.54,200.81h43.17v157.35h-41.22v-18.75c-1.55.38-2.69.32-2.96.77-17.43,29.4-62.95,30.59-87.02,13.88-14.04-9.75-21.17-24.49-22.09-40.44-2.15-37.24-2.2-74.6-3.12-112.69h44.77c.14,3.05.39,6.32.43,9.6.34,27.49.34,54.98,1.05,82.46.54,20.71,12.51,32.04,32.62,32.07,18.53.03,33.88-13.97,34.22-32.7.54-30.28.15-60.57.15-91.56Z"/>
  <path class="cls-1" d="m586.73,358.15v-223.13h44.91v182.87h95.28v40.26h-140.19Z"/>
  <path class="cls-1" d="m1337.66,358.42h-41.24v-157.43h41.24v157.43Z"/>
  <path class="cls-1" d="m1415.73,358.3h-40.94v-157.24h40.94v157.24Z"/>
  <path class="cls-1" d="m1372.24,155.25c-.08-14.19,9.68-24.18,23.61-24.18,14.59,0,25.37,10.72,25.12,25.01-.23,13.1-10.66,23.61-23.69,23.86-14.63.29-24.96-9.89-25.04-24.69Z"/>
  <path class="cls-1" d="m1341.58,155.29c.13,13.67-10.89,24.71-24.61,24.66-13.92-.05-24.51-10.91-24.35-24.97.15-12.76,10.97-23.58,23.86-23.87,13.79-.32,24.96,10.45,25.09,24.18Z"/>
</svg>