<?xml version="1.0" encoding="UTF-8"?>
<svg id="Layer_1" data-name="Layer 1" xmlns="http://www.w3.org/2000/svg" xmlns:xlink="http://www.w3.org/1999/xlink" viewBox="0 0 1483.7 500">
  <defs>
    <style>
      .cls-1 {
        fill: url(#linear-gradient-2);
      }

      .cls-2 {
        fill: #fff;
      }

      .cls-3 {
        fill: #107d3c;
      }

      .cls-4 {
        fill: url(#linear-gradient);
      }
    </style>
    <linearGradient id="linear-gradient" x1="139.71" y1="100.44" x2="439.84" y2="418.57" gradientUnits="userSpaceOnUse">
      <stop offset="0" stop-color="#118642"/>
      <stop offset=".04" stop-color="#108440"/>
      <stop offset=".35" stop-color="#0e7739"/>
      <stop offset=".65" stop-color="#0e7337"/>
      <stop offset=".91" stop-color="#127a3b"/>
    </linearGradient>
    <linearGradient id="linear-gradient-2" x1="157.87" y1="202.55" x2="466.01" y2="332.6" gradientUnits="userSpaceOnUse">
      <stop offset=".06" stop-color="#38b863"/>
      <stop offset=".13" stop-color="#32af5d"/>
      <stop offset=".29" stop-color="#2aa254"/>
      <stop offset=".45" stop-color="#289e52"/>
      <stop offset=".91" stop-color="#0e7437"/>
    </linearGradient>
  </defs>
  <path class="cls-3" d="m1274.15,200.23c-11.29,13.3-21.63,25.56-32.07,37.73-10.49,12.25-21.08,24.41-32.15,37.22,21.24,27.35,42.47,54.68,64.88,83.53-17.45,0-33.17.16-48.87-.2-1.89-.04-4.09-2.59-5.53-4.45-17.44-22.64-34.76-45.36-52.12-68.06-.59-.77-1.3-1.45-3.26-3.63v75.76h-42.03v-223.09h41.22v132.31l1.72.94c4.49-5.1,9.06-10.12,13.44-15.31,13.35-15.78,26.55-31.69,40.04-47.35,2.02-2.35,5.23-5.09,7.97-5.18,15.14-.5,30.31-.24,46.74-.24Z"/>
  <path class="cls-3" d="m740.91,280.48c0-49.14,35.57-84.62,84.7-84.46,48.8.15,86.04,35.76,86.38,82.59.36,50.19-36.13,86.4-86.98,86.31-48.16-.08-84.09-36.16-84.09-84.44Zm86,44.51c24.02.16,41.1-17.99,41.43-44.01.32-25.71-18.26-46.29-41.78-46.26-23.84.02-41.35,18.61-41.54,44.09-.2,27.55,16.54,46.01,41.89,46.18Z"/>
  <path class="cls-3" d="m1047.54,200.81h43.17v157.35h-41.22v-18.75c-1.55.38-2.69.32-2.96.77-17.43,29.4-62.95,30.59-87.02,13.88-14.04-9.75-21.17-24.49-22.09-40.44-2.15-37.24-2.2-74.6-3.12-112.69h44.77c.14,3.05.39,6.32.43,9.6.34,27.49.34,54.98,1.05,82.46.54,20.71,12.51,32.04,32.62,32.07,18.53.03,33.88-13.97,34.22-32.7.54-30.28.15-60.57.15-91.56Z"/>
  <path class="cls-3" d="m586.73,358.15v-223.13h44.91v182.87h95.28v40.26h-140.19Z"/>
  <path class="cls-3" d="m1337.66,358.42h-41.24v-157.43h41.24v157.43Z"/>
  <path class="cls-3" d="m1415.73,358.3h-40.94v-157.24h40.94v157.24Z"/>
  <path class="cls-3" d="m1372.24,155.25c-.08-14.19,9.68-24.18,23.61-24.18,14.59,0,25.37,10.72,25.12,25.01-.23,13.1-10.66,23.61-23.69,23.86-14.63.29-24.96-9.89-25.04-24.69Z"/>
  <path class="cls-3" d="m1341.58,155.29c.13,13.67-10.89,24.71-24.61,24.66-13.92-.05-24.51-10.91-24.35-24.97.15-12.76,10.97-23.58,23.86-23.87,13.79-.32,24.96,10.45,25.09,24.18Z"/>
  <g>
    <ellipse class="cls-4" cx="281.4" cy="250.62" rx="218.68" ry="226.92"/>
    <path class="cls-2" d="m271.47,246.86l19.03,16.77s24.28,26.49,42.22,8.57c16.42-16.41,54.74-46.81,74.13-63.06,12.78-10.72,24.18-2.1,24.18-2.1,14.08,11.69,8.61,34.54-7.42,49.02l-76.92,67.55c-20.29,18.33-49.73,15.94-66.79-5.42l-36.58-46.97c-4.25-5.32-5.82-10.98-4.62-17.22,1.74-9.03,10.34-15.28,19.41-13.78,4.03.67,8.69,2.51,13.37,6.64Z"/>
    <path class="cls-1" d="m482.07,161.85c.17,3.33.25,6.68.25,10.04,0,33.36-6.57,61.05-21.35,88.52-9.34,17.43-21.27,33.26-35.28,46.99-20.86,20.52-46.33,36.37-74.71,45.85-6.8,2.6-13.9,4.55-21.25,5.81-6.37,1.09-12.94,1.66-19.64,1.66-21.57,0-41.76-5.91-59.03-16.22-.29-.15-.56-.32-.83-.49-8.05-4.69-15.37-10.46-21.78-17.11-.25-.25-.51-.51-.75-.76-7.03-7.44-12.96-15.95-17.48-25.26-8.1-13.98-12.74-30.24-12.74-47.57,0-33.27,16.75-61.27,42.46-77.67,10.93-6.04,25.81-10.69,39.14-11.08,29.1-.84,55.03,13.83,69.89,36.51,5.47,8.35,17.43,9.12,24.04,1.64h0s7.46-8.44,7.46-8.44l19.28-21.8h0c6.27-7.08,6.57-17.74.5-24.99-28.96-34.61-72.47-56.62-121.13-56.62-15.61,0-30.71,2.28-44.95,6.51-63.47,23.92-108.6,85.21-108.6,157.04,0,7.71.53,15.31,1.55,22.75,2.4,17.82,7.61,34.74,15.17,50.32,7.61,15.71,17.62,30.07,29.53,42.59.29.31.58.59.87.88,11.33,11.33,24.07,21.25,37.93,29.46,28.61,16.97,62.01,26.72,97.68,26.72,105.94,0,189.99-82.14,189.99-188.07,0-27.47-5.78-53.6-16.19-77.21Z"/>
  </g>
</svg>