<?xml version="1.0" encoding="UTF-8" ?>
<!DOCTYPE svg PUBLIC "-//W3C//DTD SVG 1.1//EN" "http://www.w3.org/Graphics/SVG/1.1/DTD/svg11.dtd">
<svg width="916pt" height="949pt" viewBox="0 0 916 949" version="1.1" xmlns="http://www.w3.org/2000/svg">
<g id="#107d3cff">
<path fill="#107d3c" opacity="1.00" d=" M 254.64 54.55 C 318.21 21.04 390.08 3.35 461.96 3.87 C 507.85 3.91 553.73 11.31 597.34 25.59 C 661.20 46.38 719.99 82.08 768.52 128.43 C 820.07 177.66 860.44 238.71 885.03 305.64 C 882.12 302.01 881.49 297.19 878.59 293.57 C 879.49 329.84 877.67 366.40 869.79 401.93 C 856.22 464.34 825.18 522.32 783.62 570.56 C 740.50 620.45 685.19 659.82 623.67 683.66 C 606.50 690.02 589.33 696.66 571.37 700.43 C 512.88 713.32 449.67 703.44 398.16 672.77 C 361.68 652.19 331.51 620.59 312.88 583.05 C 306.53 571.61 300.70 559.85 296.48 547.44 C 280.96 503.04 281.74 452.98 299.46 409.34 C 311.54 379.41 331.59 352.82 356.81 332.72 C 364.79 326.46 373.01 320.33 382.30 316.15 C 408.94 303.58 438.46 296.04 468.05 297.52 C 499.58 298.85 530.61 309.47 556.43 327.59 C 571.75 338.30 585.27 351.59 596.27 366.70 C 600.27 372.28 603.70 378.61 609.70 382.35 C 622.12 390.91 640.49 388.81 650.54 377.51 C 669.65 355.96 688.75 334.38 707.79 312.77 C 719.68 298.86 720.18 276.63 708.47 262.46 C 668.58 214.25 614.61 177.83 554.91 159.02 C 492.75 139.32 424.65 138.58 362.15 157.23 C 300.35 180.15 245.62 221.39 205.95 273.98 C 166.98 325.37 142.75 387.79 136.98 452.05 C 132.76 497.40 137.46 543.57 150.78 587.13 C 170.00 649.61 206.90 706.84 257.02 748.96 C 308.02 792.55 370.16 823.01 435.93 836.35 C 510.21 851.41 588.72 845.32 659.72 818.76 C 712.29 799.09 760.63 768.06 800.08 728.12 C 843.54 684.47 876.10 630.13 894.31 571.30 C 912.12 513.97 916.50 452.62 907.76 393.27 C 907.08 388.29 905.79 383.38 905.85 378.32 C 911.80 405.48 914.68 433.28 915.63 461.05 C 917.74 526.65 906.71 592.71 882.80 653.87 C 847.98 743.66 785.27 822.61 704.78 875.68 C 653.41 909.69 594.96 933.03 534.19 943.25 C 519.41 946.00 504.39 946.95 489.52 949.00 L 430.67 949.00 C 421.82 947.44 412.82 947.15 403.93 945.87 C 323.26 935.73 245.89 902.33 182.51 851.51 C 125.54 806.05 79.66 746.96 49.14 680.81 C 13.59 604.14 -0.90 518.07 6.43 433.94 C 12.85 358.24 37.33 284.09 77.66 219.69 C 120.84 150.43 182.29 92.48 254.64 54.55 M 745.12 379.20 C 736.47 380.23 728.45 384.33 721.83 389.87 C 696.78 410.81 671.37 431.31 646.25 452.17 C 618.49 475.32 590.58 498.40 564.74 523.72 C 558.96 528.91 551.79 532.67 544.09 533.91 C 533.83 535.70 523.33 533.12 513.97 528.91 C 500.65 522.82 488.98 513.60 478.73 503.23 C 465.68 491.64 452.55 480.14 439.47 468.59 C 429.79 460.10 417.23 453.96 404.12 454.49 C 389.08 455.13 375.48 466.55 371.78 481.07 C 368.19 493.83 371.57 507.89 379.74 518.19 C 405.72 551.54 431.66 584.91 457.68 618.23 C 474.24 638.93 499.46 652.84 526.09 654.24 C 550.17 655.81 574.41 647.20 592.82 631.77 C 647.87 583.51 702.88 535.19 757.85 486.83 C 774.46 471.23 787.09 450.12 788.76 427.03 C 790.02 411.51 784.11 395.03 771.52 385.43 C 763.83 380.34 754.28 378.11 745.12 379.20 Z" />
</g>
<g id="#3bbd67ff">
<path fill="#3bbd67" opacity="1.00" d=" M 362.15 157.23 C 424.65 138.58 492.75 139.32 554.91 159.02 C 614.61 177.83 668.58 214.25 708.47 262.46 C 720.18 276.63 719.68 298.86 707.79 312.77 C 688.75 334.38 669.65 355.96 650.54 377.51 C 640.49 388.81 622.12 390.91 609.70 382.35 C 603.70 378.61 600.27 372.28 596.27 366.70 C 585.27 351.59 571.75 338.30 556.43 327.59 C 530.61 309.47 499.58 298.85 468.05 297.52 C 438.46 296.04 408.94 303.58 382.30 316.15 C 373.01 320.33 364.79 326.46 356.81 332.72 C 331.59 352.82 311.54 379.41 299.46 409.34 C 281.74 452.98 280.96 503.04 296.48 547.44 C 300.70 559.85 306.53 571.61 312.88 583.05 C 331.51 620.59 361.68 652.19 398.16 672.77 C 449.67 703.44 512.88 713.32 571.37 700.43 C 589.33 696.66 606.50 690.02 623.67 683.66 C 685.19 659.82 740.50 620.45 783.62 570.56 C 825.18 522.32 856.22 464.34 869.79 401.93 C 877.67 366.40 879.49 329.84 878.59 293.57 C 881.49 297.19 882.12 302.01 885.03 305.64 C 893.96 329.23 900.99 353.57 905.85 378.32 C 905.79 383.38 907.08 388.29 907.76 393.27 C 916.50 452.62 912.12 513.97 894.31 571.30 C 876.10 630.13 843.54 684.47 800.08 728.12 C 760.63 768.06 712.29 799.09 659.72 818.76 C 588.72 845.32 510.21 851.41 435.93 836.35 C 370.16 823.01 308.02 792.55 257.02 748.96 C 206.90 706.84 170.00 649.61 150.78 587.13 C 137.46 543.57 132.76 497.40 136.98 452.05 C 142.75 387.79 166.98 325.37 205.95 273.98 C 245.62 221.39 300.35 180.15 362.15 157.23 Z" />
</g>
<g id="#ffffffff">
<path fill="#ffffff" opacity="1.00" d=" M 745.12 379.20 C 754.28 378.11 763.83 380.34 771.52 385.43 C 784.11 395.03 790.02 411.51 788.76 427.03 C 787.09 450.12 774.46 471.23 757.85 486.83 C 702.88 535.19 647.87 583.51 592.82 631.77 C 574.41 647.20 550.17 655.81 526.09 654.24 C 499.46 652.84 474.24 638.93 457.68 618.23 C 431.66 584.91 405.72 551.54 379.74 518.19 C 371.57 507.89 368.19 493.83 371.78 481.07 C 375.48 466.55 389.08 455.13 404.12 454.49 C 417.23 453.96 429.79 460.10 439.47 468.59 C 452.55 480.14 465.68 491.64 478.73 503.23 C 488.98 513.60 500.65 522.82 513.97 528.91 C 523.33 533.12 533.83 535.70 544.09 533.91 C 551.79 532.67 558.96 528.91 564.74 523.72 C 590.58 498.40 618.49 475.32 646.25 452.17 C 671.37 431.31 696.78 410.81 721.83 389.87 C 728.45 384.33 736.47 380.23 745.12 379.20 Z" />
</g>
</svg>
